<?xml version="1.0" encoding="utf-8"?>
<!-- Generator: Adobe Illustrator 16.0.4, SVG Export Plug-In . SVG Version: 6.00 Build 0)  -->
<!DOCTYPE svg PUBLIC "-//W3C//DTD SVG 1.1//EN" "http://www.w3.org/Graphics/SVG/1.1/DTD/svg11.dtd">
<svg version="1.1" id="Layer_1" xmlns="http://www.w3.org/2000/svg" xmlns:xlink="http://www.w3.org/1999/xlink" x="0px" y="0px"
	 width="197.34px" height="83.994px" viewBox="0 0 197.34 83.994" enable-background="new 0 0 197.34 83.994" xml:space="preserve">
<path fill="#010101" d="M128.625,44.641c-1.729,0-2.881-0.143-3.602-1.656l-6.119-12.168c-0.865-1.656-2.16-2.305-2.16-2.305v-0.145
	c3.6-0.791,9.145-4.969,9.145-13.465c0-9.289-6.266-14.904-15.193-14.904H89.518h-1H67.771v6.191h4.682v40.035
	c0,3.24,1.367,4.609,4.607,4.609h12.891c9,0,16.344-4.896,16.344-14.473c0-2.051-0.389-4.012-1.133-5.762h1.859
	c2.809,0,3.746,0.361,5.041,2.736l6.912,13.682c1.656,3.312,3.098,3.816,7.057,3.816h3.529v-6.193H128.625z M79.652,6.189h8.865
	h0.928c4.752,0,7.488,3.025,7.488,7.488c0,4.465-2.879,7.705-7.344,7.705h-9.938V6.189z M90.311,44.641h-9.074
	c-1.008,0-1.584-0.576-1.584-1.584v-15.77h10.658c5.184,0,8.568,3.529,8.568,8.713S95.711,44.641,90.311,44.641z M109.758,24.408
	H98.979c-0.336-0.135-0.68-0.256-1.035-0.361v-0.143c3.383-1.656,6.336-5.4,6.336-10.945c0-2.627-0.641-4.893-1.783-6.77h7.406
	c5.328,0,8.568,3.312,8.568,9.002C118.471,20.879,115.23,24.408,109.758,24.408z"/>
<g>
	<path fill="#010101" d="M-0.002,59.154h3.199v9.545c1.383-1.008,2.859-1.512,4.43-1.512c2.051,0,3.727,0.773,5.027,2.32
		s1.951,3.533,1.951,5.959c0,2.602-0.777,4.674-2.33,6.215s-3.629,2.311-6.23,2.311c-1.043,0-2.143-0.111-3.297-0.334
		c-1.152-0.223-2.07-0.504-2.75-0.844V59.154z M3.197,71.758v8.754c1.09,0.328,2.209,0.492,3.357,0.492
		c1.418,0,2.574-0.504,3.471-1.512s1.346-2.303,1.346-3.885c0-1.605-0.42-2.912-1.258-3.92s-1.93-1.512-3.277-1.512
		C5.641,70.176,4.428,70.703,3.197,71.758z"/>
	<path fill="#010101" d="M20.127,67.539v3.709l0.176-0.281c1.547-2.496,3.094-3.744,4.641-3.744c1.207,0,2.467,0.609,3.779,1.828
		l-1.688,2.812c-1.113-1.055-2.145-1.582-3.094-1.582c-1.031,0-1.926,0.492-2.682,1.477s-1.133,2.15-1.133,3.498v8.455H16.91V67.539
		H20.127z"/>
	<path fill="#010101" d="M36.35,67.504c2.461,0,4.506,0.795,6.135,2.383s2.443,3.582,2.443,5.984c0,2.332-0.826,4.27-2.479,5.811
		s-3.732,2.311-6.24,2.311c-2.426,0-4.453-0.781-6.082-2.346s-2.443-3.52-2.443-5.863c0-2.367,0.822-4.338,2.469-5.914
		S33.865,67.504,36.35,67.504z M36.174,70.387c-1.535,0-2.795,0.504-3.779,1.512s-1.477,2.291-1.477,3.85
		c0,1.547,0.504,2.811,1.512,3.789s2.303,1.467,3.885,1.467c1.57,0,2.855-0.494,3.857-1.484s1.504-2.26,1.504-3.807
		c0-1.535-0.521-2.807-1.564-3.814S37.756,70.387,36.174,70.387z"/>
	<path fill="#010101" d="M45.49,70.105l6.01-5.906v3.34h5.115v2.883H51.5v7.916c0,1.848,0.768,2.771,2.303,2.771
		c1.148,0,2.361-0.381,3.639-1.143v2.988c-1.23,0.691-2.572,1.037-4.025,1.037c-1.465,0-2.682-0.428-3.654-1.283
		c-0.305-0.258-0.557-0.547-0.756-0.869s-0.365-0.744-0.5-1.266s-0.203-1.516-0.203-2.98v-7.172H45.49V70.105z"/>
	<path fill="#010101" d="M59.674,59.154h3.199v10.512c1.336-1.629,2.994-2.443,4.975-2.443c1.078,0,2.045,0.27,2.9,0.809
		s1.492,1.283,1.908,2.232s0.623,2.361,0.623,4.236v9.211H70.08V73.709c0-1.184-0.289-2.135-0.869-2.855s-1.346-1.082-2.295-1.082
		c-0.703,0-1.365,0.182-1.986,0.545s-1.307,0.967-2.057,1.811v11.584h-3.199V59.154z"/>
	<path fill="#010101" d="M90.086,75.906H78.713c0.082,1.547,0.6,2.777,1.555,3.691s2.189,1.371,3.701,1.371
		c2.109,0,4.055-0.656,5.836-1.969v3.129c-0.984,0.656-1.959,1.125-2.926,1.406c-0.969,0.281-2.102,0.422-3.402,0.422
		c-1.781,0-3.223-0.369-4.324-1.107s-1.984-1.73-2.645-2.979c-0.662-1.248-0.994-2.693-0.994-4.334c0-2.461,0.697-4.461,2.092-6.002
		s3.205-2.312,5.432-2.312c2.145,0,3.855,0.75,5.133,2.25s1.916,3.51,1.916,6.029V75.906z M78.783,73.99h8.139
		c-0.082-1.277-0.463-2.262-1.143-2.953S84.186,70,83.037,70s-2.09,0.346-2.822,1.037S79.006,72.713,78.783,73.99z"/>
	<path fill="#010101" d="M96.256,67.539v3.709l0.176-0.281c1.547-2.496,3.094-3.744,4.641-3.744c1.207,0,2.467,0.609,3.779,1.828
		l-1.688,2.812c-1.113-1.055-2.145-1.582-3.094-1.582c-1.031,0-1.924,0.492-2.68,1.477s-1.135,2.15-1.135,3.498v8.455h-3.217V67.539
		H96.256z"/>
	<path fill="#010101" d="M106.293,82.551v-3.445c0.902,0.633,1.826,1.146,2.77,1.539s1.736,0.588,2.381,0.588
		c0.668,0,1.242-0.164,1.723-0.492s0.721-0.721,0.721-1.178c0-0.469-0.154-0.857-0.465-1.168s-0.982-0.76-2.014-1.346
		c-2.062-1.148-3.412-2.129-4.051-2.943s-0.959-1.703-0.959-2.664c0-1.242,0.484-2.256,1.451-3.041s2.211-1.178,3.734-1.178
		c1.582,0,3.205,0.445,4.869,1.336v3.164c-1.898-1.148-3.451-1.723-4.658-1.723c-0.621,0-1.121,0.133-1.502,0.396
		s-0.572,0.613-0.572,1.047c0,0.375,0.172,0.734,0.518,1.074s0.951,0.75,1.818,1.23l1.143,0.65c2.697,1.521,4.045,3.209,4.045,5.061
		c0,1.324-0.518,2.41-1.555,3.26s-2.371,1.273-4,1.273c-0.961,0-1.816-0.102-2.566-0.307S107.43,83.102,106.293,82.551z"/>
	<path fill="#010101" d="M125.365,67.539v3.709l0.176-0.281c1.547-2.496,3.094-3.744,4.641-3.744c1.207,0,2.467,0.609,3.779,1.828
		l-1.688,2.812c-1.113-1.055-2.145-1.582-3.094-1.582c-1.031,0-1.924,0.492-2.68,1.477s-1.135,2.15-1.135,3.498v8.455h-3.217V67.539
		H125.365z"/>
	<path fill="#010101" d="M143.031,67.504c2.461,0,4.506,0.795,6.135,2.383s2.443,3.582,2.443,5.984c0,2.332-0.826,4.27-2.479,5.811
		s-3.732,2.311-6.24,2.311c-2.426,0-4.453-0.781-6.082-2.346s-2.443-3.52-2.443-5.863c0-2.367,0.824-4.338,2.471-5.914
		S140.547,67.504,143.031,67.504z M142.855,70.387c-1.535,0-2.795,0.504-3.779,1.512s-1.477,2.291-1.477,3.85
		c0,1.547,0.504,2.811,1.512,3.789s2.303,1.467,3.885,1.467c1.57,0,2.857-0.494,3.859-1.484s1.502-2.26,1.502-3.807
		c0-1.535-0.521-2.807-1.564-3.814S144.438,70.387,142.855,70.387z"/>
	<path fill="#010101" d="M153.791,59.154h3.199v24.557h-3.199V59.154z"/>
	<path fill="#010101" d="M167.822,67.504c2.461,0,4.506,0.795,6.135,2.383s2.443,3.582,2.443,5.984c0,2.332-0.826,4.27-2.479,5.811
		s-3.732,2.311-6.24,2.311c-2.426,0-4.453-0.781-6.082-2.346s-2.443-3.52-2.443-5.863c0-2.367,0.824-4.338,2.471-5.914
		S165.338,67.504,167.822,67.504z M167.646,70.387c-1.535,0-2.795,0.504-3.779,1.512s-1.477,2.291-1.477,3.85
		c0,1.547,0.504,2.811,1.512,3.789s2.303,1.467,3.885,1.467c1.57,0,2.857-0.494,3.859-1.484s1.502-2.26,1.502-3.807
		c0-1.535-0.521-2.807-1.564-3.814S169.229,70.387,167.646,70.387z"/>
	<path fill="#010101" d="M180.32,67.539v-0.967c0-2.602,0.555-4.541,1.662-5.818s2.434-1.916,3.98-1.916
		c0.668,0,1.459,0.105,2.373,0.316v3.129c-0.516-0.188-1.008-0.281-1.477-0.281c-1.254,0-2.123,0.334-2.609,1.002
		s-0.73,1.857-0.73,3.568v0.967h2.883v2.883h-2.883v13.289h-3.199V70.422H178v-2.883H180.32z"/>
	<path fill="#010101" d="M189.32,67.539v-0.967c0-2.602,0.555-4.541,1.662-5.818s2.434-1.916,3.98-1.916
		c0.668,0,1.459,0.105,2.373,0.316v3.129c-0.516-0.188-1.008-0.281-1.477-0.281c-1.254,0-2.123,0.334-2.609,1.002
		s-0.73,1.857-0.73,3.568v0.967h2.883v2.883h-2.883v13.289h-3.199V70.422H187v-2.883H189.32z"/>
</g>
</svg>
